<?xml version="1.0" encoding="UTF-8"?>
<svg xmlns="http://www.w3.org/2000/svg" xmlns:xlink="http://www.w3.org/1999/xlink" width="24px" height="31px" viewBox="0 0 24 31" version="1.1">
<g id="surface1">
<path style=" stroke:none;fill-rule:nonzero;fill:rgb(0%,0%,0%);fill-opacity:1;" d="M 15.492188 2.542969 L 15.492188 28.578125 L 1.96875 28.578125 L 1.96875 2.542969 L 15.492188 2.542969 M 16.179688 0.121094 L 1.28125 0.121094 C 0.625 0.121094 0.09375 0.933594 0.09375 1.9375 L 0.09375 29.183594 C 0.09375 30.1875 0.625 31 1.28125 31 L 16.179688 31 C 16.835938 31 17.367188 30.1875 17.367188 29.183594 L 17.367188 1.9375 C 17.367188 0.933594 16.835938 0.121094 16.179688 0.121094 Z M 16.179688 0.121094 "/>
<path style=" stroke:none;fill-rule:nonzero;fill:rgb(0%,0%,0%);fill-opacity:1;" d="M 11.835938 22.460938 L 11.835938 28.546875 L 5.625 28.546875 L 5.625 22.460938 L 11.835938 22.460938 M 13.265625 20.039062 L 4.175781 20.039062 C 3.78125 20.039062 3.75 20.328125 3.75 20.683594 L 3.75 30.324219 C 3.75 30.679688 3.78125 30.964844 4.175781 30.964844 L 13.265625 30.964844 C 13.660156 30.964844 13.710938 30.679688 13.710938 30.324219 L 13.710938 20.683594 C 13.710938 20.328125 13.660156 20.039062 13.265625 20.039062 Z M 22.078125 11.957031 L 22.078125 28.546875 L 17.394531 28.546875 L 17.394531 11.957031 L 22.078125 11.957031 M 23.574219 9.535156 L 15.878906 9.535156 C 15.546875 9.535156 15.519531 10.097656 15.519531 10.796875 L 15.519531 29.707031 C 15.519531 30.402344 15.546875 30.964844 15.878906 30.964844 L 23.574219 30.964844 C 23.910156 30.964844 23.953125 30.402344 23.953125 29.707031 L 23.953125 10.796875 C 23.953125 10.097656 23.910156 9.535156 23.574219 9.535156 Z M 6.820312 6.75 L 4.335938 6.75 C 3.816406 6.75 3.398438 6.210938 3.398438 5.539062 C 3.398438 4.871094 3.816406 4.328125 4.335938 4.328125 L 6.820312 4.328125 C 7.339844 4.328125 7.757812 4.871094 7.757812 5.539062 C 7.757812 6.210938 7.339844 6.75 6.820312 6.75 Z M 13.148438 6.75 L 10.664062 6.75 C 10.144531 6.75 9.726562 6.210938 9.726562 5.539062 C 9.726562 4.871094 10.144531 4.328125 10.664062 4.328125 L 13.148438 4.328125 C 13.667969 4.328125 14.085938 4.871094 14.085938 5.539062 C 14.085938 6.210938 13.667969 6.75 13.148438 6.75 Z M 6.820312 11.503906 L 4.335938 11.503906 C 3.816406 11.503906 3.398438 10.960938 3.398438 10.292969 C 3.398438 9.625 3.816406 9.082031 4.335938 9.082031 L 6.820312 9.082031 C 7.339844 9.082031 7.757812 9.625 7.757812 10.292969 C 7.757812 10.960938 7.339844 11.503906 6.820312 11.503906 Z M 13.148438 11.503906 L 10.664062 11.503906 C 10.144531 11.503906 9.726562 10.960938 9.726562 10.292969 C 9.726562 9.625 10.144531 9.082031 10.664062 9.082031 L 13.148438 9.082031 C 13.667969 9.082031 14.085938 9.625 14.085938 10.292969 C 14.085938 10.960938 13.667969 11.503906 13.148438 11.503906 Z M 6.820312 16.257812 L 4.335938 16.257812 C 3.816406 16.257812 3.398438 15.714844 3.398438 15.046875 C 3.398438 14.375 3.816406 13.835938 4.335938 13.835938 L 6.820312 13.835938 C 7.339844 13.835938 7.757812 14.375 7.757812 15.046875 C 7.757812 15.714844 7.339844 16.257812 6.820312 16.257812 Z M 13.148438 16.257812 L 10.664062 16.257812 C 10.144531 16.257812 9.726562 15.714844 9.726562 15.046875 C 9.726562 14.375 10.144531 13.835938 10.664062 13.835938 L 13.148438 13.835938 C 13.667969 13.835938 14.085938 14.375 14.085938 15.046875 C 14.085938 15.714844 13.667969 16.257812 13.148438 16.257812 Z M 13.148438 16.257812 "/>
<path style=" stroke:none;fill-rule:nonzero;fill:rgb(0%,0%,0%);fill-opacity:1;" d="M 17.953125 16.863281 L 17.023438 16.863281 C 16.503906 16.863281 16.085938 16.320312 16.085938 15.652344 C 16.085938 14.980469 16.503906 14.441406 17.023438 14.441406 L 17.953125 14.441406 C 18.472656 14.441406 18.890625 14.980469 18.890625 15.652344 C 18.890625 16.320312 18.472656 16.863281 17.953125 16.863281 Z M 17.953125 22.28125 L 16.945312 22.28125 C 16.425781 22.28125 16.007812 21.738281 16.007812 21.070312 C 16.007812 20.402344 16.425781 19.859375 16.945312 19.859375 L 17.953125 19.859375 C 18.472656 19.859375 18.890625 20.402344 18.890625 21.070312 C 18.890625 21.738281 18.472656 22.28125 17.953125 22.28125 Z M 17.953125 27.699219 L 17.101562 27.699219 C 16.582031 27.699219 16.164062 27.160156 16.164062 26.488281 C 16.164062 25.820312 16.582031 25.277344 17.101562 25.277344 L 17.953125 25.277344 C 18.472656 25.277344 18.890625 25.820312 18.890625 26.488281 C 18.890625 27.160156 18.472656 27.699219 17.953125 27.699219 Z M 17.953125 27.699219 "/>
</g>
</svg>
